<?xml version="1.0" encoding="UTF-8" standalone="no"?>
<!-- Created with Inkscape (http://www.inkscape.org/) -->

<svg
   width="88.45192mm"
   height="66.44075mm"
   viewBox="0 0 88.451917 66.44075"
   version="1.1"
   id="svg5"
   xml:space="preserve"
   inkscape:version="1.2.2 (b0a8486, 2022-12-01)"
   sodipodi:docname="sov_logo_wht.svg"
   xmlns:inkscape="http://www.inkscape.org/namespaces/inkscape"
   xmlns:sodipodi="http://sodipodi.sourceforge.net/DTD/sodipodi-0.dtd"
   xmlns="http://www.w3.org/2000/svg"
   xmlns:svg="http://www.w3.org/2000/svg"><sodipodi:namedview
     id="namedview7"
     pagecolor="#ffffff"
     bordercolor="#000000"
     borderopacity="0.25"
     inkscape:showpageshadow="2"
     inkscape:pageopacity="0.0"
     inkscape:pagecheckerboard="0"
     inkscape:deskcolor="#d1d1d1"
     inkscape:document-units="mm"
     showgrid="false"
     inkscape:zoom="2.2159614"
     inkscape:cx="219.54354"
     inkscape:cy="129.74053"
     inkscape:window-width="1680"
     inkscape:window-height="931"
     inkscape:window-x="114"
     inkscape:window-y="46"
     inkscape:window-maximized="0"
     inkscape:current-layer="layer1" /><defs
     id="defs2" /><g
     inkscape:label="Layer 1"
     inkscape:groupmode="layer"
     id="layer1"
     transform="translate(-23.163385,-113.30955)"><path
       style="fill:#e6e6e6;stroke:none;stroke-width:0.0846667"
       d="m 80.856228,118.12189 c 0.01981,-0.46217 -0.01829,-1.45257 0.305054,-1.80773 0.25146,-0.27626 0.787823,-0.37057 1.134279,-0.4654 1.051306,-0.28777 2.479379,-0.5881 3.556,-0.3258 0.569468,0.13875 0.953516,0.86463 1.524,0.87711 0.744474,0.0163 1.671913,-1.7335 1.218523,-2.3186 -0.415036,-0.53561 -1.661499,-0.26182 -2.234523,-0.20728 -1.829646,0.17412 -3.749632,0.0144 -5.588,0.0144 -0.567944,0 -1.83117,-0.34704 -2.213017,0.18867 -0.235966,0.33103 -0.03793,0.73269 0.04005,1.08133 0.167979,0.7514 0.25417,1.52439 0.359072,2.286 0.364151,2.64343 0.385318,5.3947 0.06003,8.04333 -0.09533,0.77597 -0.157564,1.53467 -0.391668,2.286 -0.103886,0.33333 -0.289644,0.75709 -0.06655,1.08162 0.595715,0.86673 2.118022,-0.0407 2.88942,-0.10855 0.442806,-0.0389 0.982387,0.29532 1.205822,-0.29946 0.427736,-1.13826 -1.37033,-1.0044 -1.651,-1.69334 -0.219117,-0.53797 -0.0563,-1.36931 -0.06316,-1.9436 -0.01372,-1.15443 -0.08433,-2.31115 -0.08433,-3.47134 0,-0.42537 -0.108204,-1.03242 0.06282,-1.43012 0.152654,-0.35495 0.538988,-0.34607 0.86851,-0.34781 0.79011,-0.004 1.580558,-0.002 2.370667,-7e-5 0.322749,6.7e-4 0.769874,-0.022 0.917702,0.34364 0.151723,0.37533 -0.371771,0.8489 -0.593513,1.0957 -0.926762,1.03171 -1.516211,1.86757 -1.261957,3.302 0.08086,0.4566 0.287867,1.12496 0.853101,1.15002 1.00711,0.0445 0.570738,-1.58165 0.802556,-2.16602 0.528404,-1.33162 2.001689,-2.17686 2.687235,-3.47134 0.220049,-0.41541 0.593344,-1.12683 0.317839,-1.59619 -0.309711,-0.5278 -1.294384,-0.25972 -1.77563,-0.19285 -1.801198,0.25028 -3.452537,0.11059 -5.249333,0.0957 m -24.807333,18.542 c 3.385227,2.58301 6.671225,5.01413 8.121311,9.22867 1.033272,3.00295 0.77597,6.07415 0.267462,9.144 -0.378714,2.2865 -0.837269,4.48318 -1.810935,6.604 -2.48539,5.41358 -7.485211,9.70923 -13.520505,10.31502 -2.786634,0.27974 -5.585376,-0.008 -8.297334,-0.69469 -3.540167,-0.89645 -6.765374,-2.201 -10.498666,-1.58378 -1.869957,0.30912 -3.642437,1.04394 -5.164667,2.17678 -0.538319,0.40056 -1.23471,0.85201 -1.524,1.47066 0.701542,0.29168 1.504171,0.87495 2.286,0.83778 1.105205,-0.0525 2.122399,-1.05469 3.132667,-1.46397 1.649781,-0.66827 3.482678,-0.84184 5.249333,-0.72094 3.120136,0.2137 6.06425,1.3777 9.144,1.8189 3.066458,0.43925 6.529494,0.19329 9.567334,-0.35442 2.215811,-0.39954 4.417144,-1.93328 6.265333,-3.16535 2.674874,-1.78324 5.117423,-3.93539 6.940211,-6.60399 2.838196,-4.15502 4.103032,-10.00236 3.628729,-14.986 -0.400812,-4.21226 -2.027343,-8.00007 -5.48894,-10.59223 -1.526117,-1.14283 -3.267625,-1.85843 -4.910667,-2.79781 -0.835152,-0.47752 -1.73973,-1.07865 -1.919478,-2.10396 -0.270679,-1.54365 0.823892,-2.9315 1.475232,-4.23334 1.602825,-3.20361 3.324945,-6.33653 5.035804,-9.48266 0.591143,-1.08714 1.341967,-2.1171 1.728132,-3.302 0.14859,-0.45592 0.343323,-1.10875 -0.07798,-1.48049 -0.537888,-0.4747 -1.479296,-0.12392 -2.093045,-0.0582 -1.600623,0.17137 -3.300476,0.0147 -4.910667,0.0147 -2.618655,0 -5.26415,-0.10181 -7.874,0.0771 -1.77419,0.12161 -3.651927,0.30186 -5.079661,1.48623 -1.252982,1.0394 -2.11345,2.89805 -2.527216,4.44801 -0.30844,1.15539 -0.324019,2.31868 0,3.47133 0.602488,2.14309 2.284307,3.43611 3.966211,4.73126 1.38794,1.06883 2.771309,2.14503 4.148666,3.22741 0.90297,0.70959 3.213439,1.8873 3.122507,3.21733 -0.0933,1.36322 -1.761659,2.73677 -2.421382,3.89467 -1.742609,3.05841 -3.214031,6.25204 -4.786037,9.398 -0.559562,1.1198 -1.75912,2.74913 -1.514687,4.064 0.119041,0.64059 0.768011,1.07891 1.193631,1.524 0.812546,0.8498 1.432306,1.98196 2.31377,2.74887 0.555414,0.48311 1.074759,0.18932 1.263396,-0.46287 0.330031,-1.14139 0.228262,-2.53645 0.426382,-3.72533 0.945896,-5.67784 3.319695,-10.69476 5.143754,-16.08667 m 15.748,-20.62261 c -4.279985,0.56198 -5.804916,5.31598 -5.041985,9.10794 0.50165,2.49335 2.77622,4.7001 5.465318,4.37845 4.42468,-0.52916 5.697643,-5.1617 4.927515,-8.95045 -0.503682,-2.47785 -2.567178,-4.90144 -5.350848,-4.53594 m -17.610667,0.66552 c 0.597408,-0.0734 1.200319,-5.8e-4 1.778,0.15848 4.301321,1.1843 3.148415,6.58274 1.996017,9.63861 -0.237829,0.63068 -0.488866,1.25942 -0.789771,1.86267 -0.453051,0.90847 -1.102868,3.33307 -2.222246,3.53669 -1.842008,0.33511 -3.831167,-2.32503 -4.712208,-3.62136 -0.879517,-1.29405 -1.605703,-2.81762 -1.714839,-4.40267 -0.23732,-3.44495 2.164165,-6.74247 5.665047,-7.17242 m 18.034,0.76957 c 1.231815,-0.065 1.970363,1.01653 2.245529,2.08485 0.513588,1.9945 0.422233,4.36034 -0.07595,6.35 -0.251798,1.00559 -0.85962,2.01515 -2.00025,2.1088 -3.726857,0.30573 -3.570139,-4.44179 -3.16738,-7.01946 0.0955,-0.61112 0.226822,-1.21201 0.484463,-1.778 0.465667,-1.02262 1.377781,-1.68622 2.513584,-1.74619 m 34.459329,8.04742 c -3.04225,0.40064 -5.98814,0.84226 -9.059329,0.9768 -2.582248,0.11303 -5.275326,-0.30218 -6.95198,2.20463 -1.779439,2.6604 -1.39446,6.40241 -2.204805,9.398 -1.949534,7.20683 -4.042494,14.41916 -6.393688,21.50534 -0.792226,2.38776 -1.519258,4.79992 -2.285068,7.19666 -0.206756,0.64719 -0.387096,2.15799 -1.131062,2.41029 -0.89425,0.30336 -1.162897,-1.44619 -1.268646,-1.98695 -0.456184,-2.33206 -0.338751,-4.74752 -0.338751,-7.112 0,-6.40893 0.724662,-12.95638 1.631611,-19.304 0.234104,-1.63856 0.419439,-3.29201 0.774954,-4.91067 0.123614,-0.56253 0.454068,-1.49538 0.07061,-2.01947 -0.260096,-0.35535 -0.830664,-0.30361 -1.207177,-0.19998 -1.129369,0.31072 -2.720763,0.64084 -3.724063,1.23452 -1.122003,0.66387 -0.229024,1.94725 0.0086,2.8476 0.704596,2.66996 0.667512,5.47395 0.667512,8.21266 0,6.26635 -0.527643,12.57503 -1.29413,18.796 -0.229447,1.86258 -0.433239,3.73033 -0.702225,5.588 -0.09491,0.65524 -0.479214,1.75302 -0.178054,2.37058 0.425111,0.8719 1.445937,0.73135 2.089742,1.28609 1.35145,1.16442 2.395474,2.70273 3.556,4.048 0.381424,0.44213 0.929302,1.31301 1.608667,1.23291 0.703834,-0.083 0.816864,-0.84091 0.910421,-1.40225 0.245279,-1.47108 0.494876,-2.93928 0.782828,-4.40266 1.222332,-6.21208 2.734056,-12.37319 4.487418,-18.45733 1.642364,-5.69883 3.373543,-11.38183 5.467435,-16.93334 1.26238,-3.3467 2.783078,-6.86088 5.877898,-8.93072 0.899414,-0.60147 2.040547,-0.11439 3.047992,0.0168 2.14072,0.27889 4.27736,0.36254 6.43467,0.36254 0.96351,0 2.69155,0.0462 3.30454,-0.85031 0.17018,-0.24926 0.28363,-0.55727 0.37677,-0.84302 0.81364,-2.50504 -2.75819,-2.54551 -4.35864,-2.33477 z"
       id="path3098" /></g></svg>
