<?xml version="1.0" encoding="UTF-8" standalone="no"?>
<!-- Created with Inkscape (http://www.inkscape.org/) -->

<svg
   width="170.70285mm"
   height="110.09894mm"
   viewBox="0 0 170.70285 110.09894"
   version="1.1"
   id="svg3564"
   xml:space="preserve"
   inkscape:version="1.2.2 (b0a8486, 2022-12-01)"
   sodipodi:docname="sov_logo_full_blk.svg"
   xmlns:inkscape="http://www.inkscape.org/namespaces/inkscape"
   xmlns:sodipodi="http://sodipodi.sourceforge.net/DTD/sodipodi-0.dtd"
   xmlns="http://www.w3.org/2000/svg"
   xmlns:svg="http://www.w3.org/2000/svg"><sodipodi:namedview
     id="namedview3566"
     pagecolor="#ffffff"
     bordercolor="#000000"
     borderopacity="0.25"
     inkscape:showpageshadow="2"
     inkscape:pageopacity="0.0"
     inkscape:pagecheckerboard="0"
     inkscape:deskcolor="#d1d1d1"
     inkscape:document-units="mm"
     showgrid="false"
     inkscape:zoom="3.8465423"
     inkscape:cx="211.35865"
     inkscape:cy="379.1717"
     inkscape:window-width="1680"
     inkscape:window-height="903"
     inkscape:window-x="122"
     inkscape:window-y="47"
     inkscape:window-maximized="0"
     inkscape:current-layer="layer1" /><defs
     id="defs3561" /><g
     inkscape:label="Layer 1"
     inkscape:groupmode="layer"
     id="layer1"
     transform="translate(-17.891384,-85.942542)"><path
       style="fill:#333333;stroke-width:0.264583;fill-opacity:1"
       d="m 40.438728,192.86839 c -1.354093,-1.02525 -2.726479,-1.86409 -3.049747,-1.86409 -1.432028,0 -1.488384,-0.19476 -2.302097,-7.95531 -0.418573,-3.99203 -0.946507,-8.74652 -1.173186,-10.56553 -0.547661,-4.39476 -2.282558,-11.48013 -3.308734,-13.51297 -0.653058,-1.2937 -0.750321,-1.68699 -0.493681,-1.99621 0.448641,-0.54059 3.504774,-2.2179 4.04109,-2.2179 0.660122,0 0.960104,1.09957 0.961126,3.52295 0.0018,4.2972 1.15611,14.53722 2.287121,20.28955 0.646266,3.28693 1.683848,6.72355 2.179662,7.21936 0.578678,0.57868 1.012605,-0.0476 1.18202,-1.70602 1.469406,-14.38389 2.089891,-22.43686 2.188218,-28.3998 0.10213,-6.19356 0.146662,-6.69008 0.699633,-7.80077 0.345802,-0.69457 0.954381,-1.39437 1.468408,-1.68849 1.278316,-0.73144 13.210291,-4.11989 14.539802,-4.12902 1.539644,-0.0106 1.803815,0.57341 1.409379,3.11561 -0.59509,3.83544 -0.237225,9.40606 0.668555,10.40694 0.634783,0.70143 1.267023,0.61262 2.338956,-0.32855 1.067864,-0.9376 1.157177,-1.47118 0.406083,-2.42604 -0.291042,-0.37 -0.529167,-0.85555 -0.529167,-1.07901 0,-0.96246 2.03359,-1.57633 3.183408,-0.96096 0.690227,0.3694 1.109504,2.04022 0.790816,3.15141 -0.497123,1.73336 -1.443847,2.78121 -3.478186,3.84971 -0.673063,0.35351 -1.284898,0.80209 -1.35963,0.99684 -0.386024,1.00596 1.337969,7.77337 2.645844,10.38608 0.7928,1.58376 2.68437,4.29072 3.512828,5.02708 l 0.595347,0.52917 -0.155184,-10.31875 c -0.105719,-7.02987 -0.28435,-11.24638 -0.560448,-13.22917 -0.806707,-5.79333 -0.810247,-6.01474 -0.106598,-6.66808 0.56411,-0.52378 5.059161,-2.19546 5.903473,-2.19546 0.784384,0 0.983864,0.7104 0.554556,1.97489 -0.896498,2.64058 -0.362786,4.27998 3.053088,9.37819 2.556484,3.81556 3.389143,4.65097 4.013428,4.02668 0.179559,-0.17956 0.290862,-2.10179 0.304093,-5.2518 0.02389,-5.68947 -0.211015,-6.76974 -1.985795,-9.13175 -0.569823,-0.75837 -1.03604,-1.46715 -1.03604,-1.57509 0,-0.78558 5.191514,-1.10544 5.811769,-0.35808 0.24734,0.29803 0.254415,1.12683 0.03105,3.63802 -0.159091,1.78864 -0.298516,6.82394 -0.30983,11.18957 -0.0217,8.37086 0.03827,8.92561 1.333003,12.33211 0.674063,1.77349 0.679768,2.2601 0.03057,2.60754 -0.74926,0.40099 -4.053969,0.34381 -4.633812,-0.0802 -0.441317,-0.3227 -0.461875,-0.56255 -0.232015,-2.70683 0.40401,-3.76887 0.23169,-4.3115 -3.180678,-10.01572 -1.660673,-2.77604 -3.447558,-5.90168 -3.970851,-6.94588 -1.072806,-2.14071 -1.423268,-2.49479 -1.601462,-1.61801 -0.06775,0.33338 -0.189058,6.45642 -0.269566,13.60677 -0.120255,10.68036 -0.08308,13.05316 0.20827,13.29497 0.195056,0.16188 0.92442,0.37242 1.620808,0.46787 1.042525,0.1429 1.468205,0.0632 2.410074,-0.45134 1.434592,-0.78368 2.571279,-0.53116 2.702782,0.60042 0.06879,0.59193 -0.08657,0.79526 -0.94043,1.23087 -1.221536,0.62318 -4.111101,1.18907 -4.859223,0.95163 -0.490654,-0.15573 -0.518274,-0.0884 -0.347142,0.846 0.205709,1.1232 0.676527,2.6873 1.1952,3.97055 0.559493,1.38424 0.113715,1.65059 -2.484001,1.48418 -1.194493,-0.0765 -2.272027,-0.23063 -2.394521,-0.34246 -0.122494,-0.11184 -0.210781,-1.85334 -0.196194,-3.87 l 0.02652,-3.66666 -3.582405,-1.83496 c -1.970323,-1.00922 -3.700621,-1.97739 -3.845108,-2.15149 -0.172317,-0.20763 -0.175815,-1.0812 -0.01016,-2.53899 0.314614,-2.76883 -0.02072,-5.71287 -0.924107,-8.11316 -0.809321,-2.15033 -1.314651,-2.95619 -1.853742,-2.95619 -1.076103,0 -5.389944,3.54069 -6.393247,5.24741 -0.658854,1.12078 -0.738153,1.54046 -0.858221,4.54217 l -0.132291,3.30729 -2.274647,0.0759 c -3.197135,0.10662 -3.203652,0.0905 -1.592659,-3.94749 2.541426,-6.37011 3.517198,-11.27957 3.568911,-17.95649 l 0.03381,-4.36563 -0.820356,-0.08 c -0.667629,-0.0651 -0.982832,0.10509 -1.69304,0.91397 -1.875067,2.13559 -2.667968,5.21501 -3.692445,14.34053 -0.958046,8.53378 -1.132518,11.46752 -1.300449,21.86713 l -0.166626,10.31875 -0.669997,0.0782 c -0.490101,0.0572 -1.331042,-0.42235 -3.131986,-1.78594 z m 16.32364,-33.41566 c 1.185778,-0.76398 2.209655,-1.52845 2.275279,-1.69881 0.280647,-0.72858 -1.845669,-8.98716 -2.498108,-9.70263 -0.313534,-0.34382 -0.691563,1.11273 -1.705883,6.5728 -1.035507,5.5741 -1.095695,6.21771 -0.581451,6.21771 0.19481,0 1.324385,-0.62508 2.510163,-1.38907 z m 47.803342,16.87317 c -3.91262,-0.7249 -6.928976,-2.28128 -10.013706,-5.1669 -3.404857,-3.18507 -5.882756,-7.28296 -6.638557,-10.97866 -0.635476,-3.10735 -0.791705,-8.16499 -0.320702,-10.3822 0.677119,-3.18751 2.269922,-5.89354 5.187604,-8.81329 2.068113,-2.06957 2.979713,-2.76369 5.038487,-3.83645 l 2.513544,-1.30973 h 7.80521 c 7.79138,0 7.80535,0.001 7.88648,0.57031 0.0561,0.39365 -0.18978,0.77077 -0.79375,1.21744 -1.79752,1.32937 -4.1887,2.64402 -4.80911,2.64402 -0.35282,0 -1.37386,-0.45204 -2.26898,-1.00454 -2.49729,-1.54142 -3.76215,-1.55327 -6.65947,-0.0624 -5.616892,2.89025 -8.694721,6.70841 -9.507143,11.79397 -0.698177,4.37041 0.935255,10.67108 3.810537,14.69848 1.570173,2.19933 5.241966,5.6615 6.677956,6.29671 1.62772,0.72002 4.80189,1.28457 7.22245,1.28457 1.81915,0 2.17956,-0.0875 3.30782,-0.80302 1.0178,-0.64547 1.39798,-1.10835 1.93771,-2.35923 0.44528,-1.03199 0.86061,-1.60657 1.23296,-1.7057 0.9623,-0.25619 5.17222,0.40173 5.7944,0.90554 0.4791,0.38795 0.51575,0.52847 0.22818,0.87497 -0.47165,0.5683 -10.54977,5.88004 -11.83164,6.23594 -1.33295,0.37009 -3.46173,0.33346 -5.80028,-0.0998 z m 61.17661,0.0986 c -1.08642,-0.11791 -2.44331,-0.50007 -3.43958,-0.96874 -1.58937,-0.74767 -6.43868,-4.44941 -6.89694,-5.26481 -0.13292,-0.23651 -0.0459,-1.28041 0.21346,-2.55918 0.98757,-4.87006 0.98157,-15.61534 -0.0149,-26.71487 -0.34563,-3.84984 -0.3754,-5.0474 -0.13156,-5.29166 0.40613,-0.40683 10.54658,-0.6158 10.937,-0.22539 0.17546,0.17547 0.0506,0.64783 -0.37274,1.4097 -0.55477,0.99849 -0.73743,1.13549 -1.42065,1.06558 -0.43121,-0.0441 -2.00441,-0.14426 -3.496,-0.22252 l -2.71198,-0.14229 v 2.37702 c 0,1.92346 0.0799,2.40767 0.41851,2.53763 0.77686,0.29811 3.21139,0.16332 4.35816,-0.24128 1.37861,-0.4864 1.63503,-0.24218 1.39425,1.32792 -0.286,1.86502 -0.55094,2.33003 -1.2147,2.132 -1.26455,-0.37727 -4.11476,-0.75172 -4.52465,-0.59443 -0.38989,0.14962 -0.43156,1.27869 -0.43156,11.69383 0,10.84013 0.0303,11.58681 0.50675,12.50987 0.66747,1.293 2.16656,2.70902 4.12346,3.89495 1.33603,0.80967 1.76639,0.94309 2.71682,0.84227 0.62113,-0.0659 1.62369,-0.44695 2.22793,-0.84682 1.03128,-0.68247 1.1195,-0.69845 1.43951,-0.26081 0.54837,0.74995 0.75834,2.76244 0.32998,3.16289 -0.50849,0.47537 -1.90629,0.60751 -4.01055,0.37914 z m 16.87547,-1.39958 c -0.71826,-0.31514 -4.89535,-3.35469 -6.87916,-5.00576 l -0.79375,-0.66062 -0.0296,-4.05992 c -0.0309,-4.23289 -0.50925,-7.43191 -1.72249,-11.51915 -0.59362,-1.99984 -0.97441,-2.3859 -1.87692,-1.90289 -0.53724,0.28752 -0.54428,0.4031 -0.3583,5.88603 0.10434,3.07601 0.30096,6.12853 0.43693,6.78337 0.70754,3.40746 0.69988,3.42835 -1.25934,3.43554 -1.67992,0.006 -1.99084,-0.45737 -1.74362,-2.59947 0.11185,-0.96916 0.18911,-5.81023 0.17167,-10.75794 -0.0279,-7.92654 -0.10071,-9.41189 -0.61241,-12.496 -0.66068,-3.98209 -0.56846,-4.48671 1.0148,-5.5525 1.9059,-1.28298 3.66137,-1.3636 6.17967,-0.28377 2.50668,1.07484 3.81916,3.67055 3.5758,7.07191 -0.16026,2.23975 -0.86511,3.80435 -2.55403,5.66932 -0.74494,0.82258 -1.35443,1.61369 -1.35443,1.75803 0,0.64077 3.27041,13.99002 3.72515,15.20542 1.12078,2.99556 3.98641,6.48696 5.32429,6.48696 0.42621,0 0.97547,-0.10259 1.22056,-0.22798 0.2451,-0.12539 0.77305,-0.30625 1.17323,-0.40192 0.69079,-0.16513 0.72761,-0.12593 0.72761,0.77455 0,1.22505 -0.35954,1.87072 -1.31762,2.36616 -0.93857,0.48535 -1.9876,0.49589 -3.04801,0.0306 z m -8.87746,-27.43454 c 1.20982,-1.50546 1.67971,-3.0886 1.55769,-5.24815 -0.0822,-1.45438 -0.2493,-2.01824 -0.85889,-2.89786 -0.65952,-0.9517 -0.88467,-1.09214 -1.75089,-1.09214 -0.66236,0 -1.04763,0.13965 -1.15464,0.41852 -0.0883,0.23018 -0.1606,2.66477 -0.1606,5.41019 v 4.99168 l 0.76113,-0.26533 c 0.41862,-0.14593 1.14141,-0.73854 1.6062,-1.31691 z M 129.56884,172.986 c -2.33468,-0.37696 -4.74112,-1.73246 -5.74928,-3.23844 l -0.85449,-1.27643 0.0463,-7.71726 c 0.0518,-8.64521 -0.1046,-9.99708 -1.52169,-13.15183 -0.5433,-1.20949 -0.83783,-2.21793 -0.74805,-2.56123 0.21269,-0.81334 4.75167,-4.57191 5.52119,-4.57191 0.53182,0 1.45399,0.59678 1.45399,0.94094 0,0.0602 -0.30347,1.15299 -0.67437,2.4285 -0.51069,1.75621 -0.73822,3.37872 -0.93745,6.68473 -0.30005,4.97915 -0.0545,15.83346 0.38918,17.20631 0.409,1.26542 2.12061,2.09777 4.7095,2.29022 2.30849,0.1716 3.98324,-0.21967 4.91092,-1.14735 l 0.66404,-0.66404 -0.14319,-8.51184 c -0.15021,-8.92835 -0.5552,-13.24436 -1.80586,-19.24489 -0.31647,-1.51839 -0.5878,-3.23696 -0.60294,-3.81904 -0.024,-0.92107 0.0536,-1.06982 0.59835,-1.14689 0.34424,-0.0487 1.32933,0.22713 2.18909,0.61297 0.85976,0.38583 1.97518,0.76837 2.47872,0.85009 1.43311,0.23256 1.50098,0.4835 0.92183,3.40823 -0.733,3.70168 -0.99454,14.72654 -0.53133,22.39751 l 0.34347,5.68798 -0.59082,1.05123 c -1.35705,2.41455 -6.24361,4.10979 -10.06706,3.49244 z m 14.69324,-0.30408 c -0.0587,-0.1819 -0.16961,-5.09323 -0.24637,-10.91406 -0.0958,-7.26127 -0.29644,-12.28257 -0.63934,-15.9967 -0.27488,-2.97735 -0.441,-5.63809 -0.36918,-5.91277 0.11606,-0.44381 0.29577,-0.47881 1.61435,-0.31446 0.81606,0.10171 1.57548,0.32167 1.68759,0.4888 0.1121,0.16714 0.11348,1.19685 0.003,2.28825 -0.42634,4.21411 -0.009,23.85983 0.47909,22.55603 0.34113,-0.91111 3.15047,-20.97664 3.15047,-22.50203 0,-1.59348 0.36835,-2.69983 0.89888,-2.69983 0.60089,0 2.25009,2.10571 2.43935,3.11458 0.11998,0.63953 -0.0769,1.79204 -0.65922,3.85955 -1.41086,5.00895 -2.57308,12.15388 -3.58983,22.06898 -0.21294,2.07647 -0.45933,3.89218 -0.54753,4.0349 -0.24495,0.39634 -4.09127,0.33143 -4.22132,-0.0712 z m -40.02679,-4.56842 c -3.25814,-0.70777 -5.63664,-2.56697 -7.170009,-5.60456 -2.606093,-5.16264 -2.784089,-9.87878 -0.541917,-14.3585 1.221169,-2.43982 2.75952,-3.96675 5.084406,-5.04665 3.16618,-1.47068 6.59556,-1.50879 9.67064,-0.10746 0.78157,0.35616 1.5733,0.64757 1.75939,0.64757 0.40167,0 2.72136,-2.48819 3.85274,-4.13259 1.30118,-1.8912 2.56726,-4.8533 3.0069,-7.0349 0.53927,-2.67599 0.54012,-7.803 0.002,-9.87744 -1.08506,-4.18008 -2.56488,-5.93202 -9.26218,-10.9654 -2.50028,-1.8791 -4.86597,-3.79685 -5.25709,-4.26166 -1.16875,-1.38899 -1.9929,-3.29331 -2.30715,-5.33106 -0.55481,-3.59769 0.74533,-6.704599 3.43924,-8.218633 1.24537,-0.699926 1.86882,-0.84093 5.14688,-1.164071 2.05143,-0.202221 3.88432,-0.495858 4.07309,-0.652526 0.18882,-0.156665 0.34327,-0.686988 0.34327,-1.178491 0,-0.491506 0.10378,-0.893646 0.23063,-0.893646 0.42509,0 4.12595,2.564405 4.9121,3.403698 l 0.7771,0.829635 -0.64481,0.03159 c -0.35465,0.01738 -1.29966,0.0092 -2.10002,-0.01812 -2.17969,-0.07445 -5.92298,0.462338 -7.60021,1.089869 -3.57054,1.335915 -5.49552,4.842055 -4.54268,8.274025 0.39375,1.41824 2.14674,3.16988 7.23711,7.23157 4.92344,3.92849 7.04074,6.28459 8.73222,9.7171 1.65645,3.3614 2.10631,5.23248 2.09928,8.73125 -0.005,2.47355 -0.11486,3.22813 -0.73211,5.02708 -0.39945,1.16417 -1.20926,2.93432 -1.79959,3.93368 -1.28237,2.17089 -4.24943,5.36845 -6.0589,6.52958 -0.71713,0.46019 -1.30387,0.88562 -1.30387,0.94541 0,0.0598 0.34791,0.732 0.77312,1.49378 2.1143,3.78775 2.60666,8.88664 1.25789,13.02672 -0.37927,1.16416 -1.03093,2.65244 -1.44815,3.30729 -1.59851,2.50896 -4.32371,4.27171 -7.37716,4.77179 -1.90167,0.31145 -2.19214,0.30148 -4.25175,-0.14594 z m 4.77153,-1.8693 c 1.48521,-0.50606 3.23981,-2.14374 3.90293,-3.64282 1.45277,-3.28422 1.30164,-10.47308 -0.29835,-14.19237 l -0.53869,-1.25222 -3.61512,1.16575 c -3.517,1.13411 -4.80817,1.31878 -5.00574,0.71596 -0.10404,-0.31744 1.42162,-1.02523 4.15657,-1.92832 0.94588,-0.31233 2.01158,-0.79207 2.36821,-1.06609 0.56509,-0.43418 0.60157,-0.55466 0.28385,-0.93748 -0.7431,-0.89538 -1.94957,-1.30102 -3.84269,-1.29199 -3.00927,0.0143 -5.06656,1.24617 -6.12222,3.66574 -0.742666,1.70219 -0.824523,8.24759 -0.14446,11.55138 0.5378,2.61267 1.49047,4.88898 2.51617,6.01217 1.38193,1.51327 3.97828,2.00485 6.33954,1.20029 z M 19.502169,154.72729 c 0,-0.72007 1.833089,-3.66355 3.043052,-4.88639 2.11264,-2.13512 4.50563,-3.16302 9.513576,-4.08654 2.311164,-0.4262 4.806944,-0.97101 5.546182,-1.21068 5.012891,-1.62527 9.133753,-5.45214 11.111079,-10.31837 0.69749,-1.71653 1.898775,-7.44897 2.167965,-10.34535 0.29257,-3.14796 -0.804569,-6.18886 -3.151545,-8.73503 -1.210252,-1.31297 -3.57672,-3.12198 -3.796514,-2.90219 -0.08117,0.0812 -0.799058,1.8516 -1.595303,3.93427 -1.70293,4.45422 -2.94386,9.05804 -3.173367,11.77311 -0.09025,1.06764 -0.310669,2.14162 -0.489821,2.38662 -0.305252,0.41746 -0.368713,0.41731 -1.009219,-0.002 -1.028927,-0.67417 -3.349418,-3.57627 -3.349418,-4.18892 0,-0.682 5.830803,-12.11022 7.035368,-13.78913 1.467491,-2.04538 1.522516,-1.95521 -3.595785,-5.8922 -3.980458,-3.06177 -4.639752,-3.69346 -5.282959,-5.06183 -1.347261,-2.86617 0.04561,-7.106858 2.880939,-8.771172 l 1.211395,-0.711081 7.9375,-0.164843 c 5.361533,-0.111345 8.050353,-0.07514 8.285239,0.111575 0.217699,0.17305 0.284673,0.531111 0.179097,0.957508 -0.09276,0.3746 -1.774058,3.682063 -3.736232,7.349913 -1.962174,3.66786 -3.665746,7.01108 -3.785719,7.4294 -0.416727,1.45304 0.179258,2.16417 3.250827,3.87884 1.54968,0.8651 3.35249,2.05572 4.006249,2.64584 1.639094,1.47952 2.936052,3.7867 3.464894,6.16373 0.61678,2.77232 0.408463,8.18179 -0.415298,10.7842 -1.948871,6.15682 -5.885762,10.34648 -13.114414,13.95643 -2.890084,1.44329 -4.014952,1.81532 -8.585685,2.83956 -1.964531,0.44023 -4.138938,0.98872 -4.832014,1.21887 -1.907701,0.63348 -4.284339,2.35113 -5.386347,3.89284 -0.540819,0.7566 -1.164593,1.52446 -1.386168,1.70636 -0.503881,0.41367 -2.947554,0.44437 -2.947554,0.037 z m 24.884539,-49.64073 c 1.254694,-2.64091 2.102961,-5.66706 2.102961,-7.5022 0,-2.039672 -1.744662,-3.688733 -3.889465,-3.676337 -3.154143,0.01823 -5.728293,3.203527 -5.27304,6.524957 0.43625,3.18279 3.353824,6.95856 5.379614,6.96199 0.472602,8e-4 0.790099,-0.43547 1.67993,-2.30841 z m 16.637005,33.71077 c -1.703811,-0.90099 -2.500238,-2.5708 -2.480757,-5.2012 0.02238,-3.02262 1.063538,-5.089 3.083568,-6.11999 2.103318,-1.07349 4.725347,-0.27608 5.947055,1.8086 0.843061,1.43858 1.152038,4.63409 0.611161,6.32075 -1.074655,3.35119 -4.213791,4.75038 -7.161027,3.19184 z m 3.934468,-1.62932 c 1.084352,-1.37853 1.224904,-5.24194 0.277095,-7.61656 -0.559374,-1.40144 -2.295749,-1.21039 -3.478829,0.38277 -0.377025,0.50771 -0.563573,1.2747 -0.654449,2.69073 -0.2321,3.61662 0.474043,5.1981 2.321004,5.1981 0.770118,0 1.146125,-0.16044 1.535179,-0.65504 z m 4.478449,1.64334 c -0.08315,-0.21669 -0.02077,-0.91466 0.138615,-1.55104 0.387323,-1.54643 0.377544,-8.17225 -0.01495,-10.12752 -0.458407,-2.28366 -0.476163,-2.27433 4.324506,-2.27433 2.225852,0 4.235336,0.0723 4.465518,0.1606 0.567841,0.2179 0.527807,1.23331 -0.07813,1.98161 l -0.496642,0.61332 -1.085008,-0.48927 c -0.804437,-0.36274 -1.42666,-0.4488 -2.406201,-0.33279 -1.810001,0.21437 -2.394672,0.57237 -2.394672,1.46631 v 0.73532 l 3.0383,-0.1163 c 2.610509,-0.0999 3.061171,-0.0567 3.200731,0.30699 0.180978,0.47161 -0.534255,1.74427 -1.896875,3.37522 -0.496413,0.59417 -0.902573,1.34394 -0.902573,1.66616 0,0.32223 -0.165708,0.81248 -0.368244,1.08946 -0.306028,0.41852 -0.437261,0.44633 -0.776743,0.16458 -0.999736,-0.8297 -0.718846,-2.66648 0.588733,-3.84982 1.027125,-0.92953 0.722556,-1.21514 -1.295829,-1.21514 h -1.852083 v 1.68098 c 0,0.92454 0.07752,2.42261 0.172257,3.32904 0.143475,1.3727 0.270062,1.68524 0.757663,1.87062 0.713018,0.27109 1.004732,0.92354 0.573088,1.28178 -0.174692,0.14498 -1.042721,0.34563 -1.92895,0.4459 -1.301351,0.14723 -1.640412,0.10651 -1.762514,-0.21168 z m 13.350269,-1.59034 c -0.188537,-0.22718 -0.315005,-6.17181 -0.386985,-18.19011 -0.09933,-16.58428 -0.147378,-18.12521 -0.676357,-21.6891 -0.702085,-4.730167 -0.721717,-5.870828 -0.11045,-6.417489 0.656391,-0.587012 5.87285,-2.352974 6.674162,-2.259443 0.819406,0.09564 1.023453,0.992862 0.421309,1.852546 -1.248429,1.782379 0.303853,10.600886 4.110736,23.353086 0.763609,2.55792 1.477296,4.55859 1.585968,4.44593 0.348366,-0.36116 0.591809,-22.800886 0.263427,-24.281926 -0.161327,-0.727604 -0.793927,-2.31141 -1.405781,-3.519572 -1.499103,-2.960108 -1.420747,-3.071508 2.229487,-3.169708 3.252719,-0.08751 3.505671,0.04984 3.078049,1.671248 -0.152202,0.577107 -0.336971,4.864791 -0.410596,9.528188 -0.109532,6.93755 -0.0565,9.00646 0.291716,11.38094 0.552503,3.76746 0.532683,5.6123 -0.103582,9.6412 -0.865573,5.48092 -0.59596,8.67078 0.956879,11.32104 1.000839,1.70816 0.805679,2.24053 -0.956879,2.61021 -1.975432,0.41433 -3.582868,0.42482 -3.911909,0.0255 -0.149897,-0.1819 -0.318339,-2.11667 -0.374314,-4.29948 l -0.101777,-3.96875 -1.645487,-3.175 c -1.760177,-3.3963 -2.196234,-4.90529 -5.122449,-17.72636 l -1.147189,-5.02635 -0.08051,8.06907 c -0.09757,9.77878 0.252725,16.63329 1.156025,22.62115 1.076436,7.13555 1.051791,6.78175 0.50046,7.18489 -0.647311,0.47333 -4.444384,0.48768 -4.833956,0.0183 z M 65.275086,122.06812 c -4.815885,-1.33495 -7.79612,-6.25343 -8.747451,-14.43647 -0.967115,-8.31884 1.649889,-14.676098 7.100861,-17.249478 1.565783,-0.739201 2.048291,-0.839462 4.02784,-0.836964 1.86545,0.0024 2.502527,0.120756 3.735919,0.69433 3.925832,1.825657 5.880632,5.545825 6.234456,11.864762 0.352084,6.28787 -1.420391,13.78854 -4.094173,17.32551 -1.837737,2.43101 -5.167413,3.49487 -8.257452,2.63831 z m 4.091717,-3.13234 c 1.719668,-1.12677 2.668133,-5.11333 3.075009,-12.92479 0.483256,-9.27777 0.116242,-11.697596 -2.021459,-13.328102 -0.890386,-0.67913 -1.21589,-0.76505 -2.898336,-0.76505 -1.657524,0 -2.033278,0.09562 -2.995125,0.76218 -1.324573,0.917929 -2.564588,2.716326 -3.087839,4.478292 -0.68522,2.30739 -0.972849,6.5153 -0.65909,9.64234 0.861719,8.58824 3.241148,13.01944 6.806409,12.67553 0.616365,-0.0595 1.417558,-0.30264 1.780431,-0.5404 z"
       id="path4816"
       sodipodi:nodetypes="sssssssssssssssssssssssssscsssssssssssssssssssssssssssssssscsssssssccsscsssscssssssssssssssscssssssssssssssssssssscssscsscscssssscssssssssscssssscsssssssssssssssssssssscssssccssssssssscsscssssscsssccssssccssscsscccssssssscssssscssscscssssssssscsssccssscssssscssssssssssssssscssssscsssssssssssssssssssssssssssssssssssssscscssscsssssssscsssssssssssssssssssssssssscsscsssssssscssssssssssscs" /></g></svg>
